Coordinates
version=1
nRows=6
nColumns=107
inDegrees=yes

Units are S.I. units (second, meters, Newtons, ...)
If the header above contains a line with 'inDegrees', this indicates whether rotational values are in degrees (yes) or radians (no).

endheader
time	sternoclavicular_r2	sternoclavicular_r3	unrotscap_r3	unrotscap_r2	acromioclavicular_r2	acromioclavicular_r3	acromioclavicular_r1	unrothum_r1	unrothum_r3	unrothum_r2	elv_angle	shoulder_elv	shoulder1_r2	shoulder_rot	elbow_flexion	pro_sup	deviation	flexion	proximal_distal_r1	proximal_distal_r3	cmc_flexion	cmc_abduction	mp_flexion	ip_flexion	mcp2_flexion	mcp2_abduction	pm2_flexion	md2_flexion	mcp3_flexion	mcp3_abduction	pm3_flexion	md3_flexion	mcp4_flexion	mcp4_abduction	pm4_flexion	md4_flexion	mcp5_flexion	mcp5_abduction	pm5_flexion	md5_flexion	bicpt_tx	bicpt_ty	bicpt_tz	bicpt2_tx	bicpt2_ty	bicpt2_tz	ptpt_tx	ptpt_ty	ptpt_tz	FCUpt_tx	FCUpt_ty	FCUpt_tz	EDCpt_tx	EDCpt_ty	EDCpt_tz	APLpt_tx	APLpt_ty	APLpt_tz	FPLpt_tx	FPLpt_ty	FPLpt_tz	FPLpt2_tx	FPLpt2_ty	FPLpt2_tz	PEC1pt2_tx	PEC1pt2_ty	PEC1pt2_tz	PEC1pt3_tx	PEC1pt3_ty	PEC1pt3_tz	PEC2pt2_tx	PEC2pt2_ty	PEC2pt2_tz	PEC2pt3_tx	PEC2pt3_ty	PEC2pt3_tz	PEC3pt2_tx	PEC3pt2_ty	PEC3pt2_tz	PEC3pt3_tx	PEC3pt3_ty	PEC3pt3_tz	DELT2pt2a_tx	DELT2pt2a_ty	DELT2pt2a_tz	DELT2pt2_tx	DELT2pt2_ty	DELT2pt2_tz	LAT1pt2_tx	LAT1pt2_ty	LAT1pt2_tz	LAT1pt3_tx	LAT1pt3_ty	LAT1pt3_tz	LAT2pt2_tx	LAT2pt2_ty	LAT2pt2_tz	LAT2pt3_tx	LAT2pt3_ty	LAT2pt3_tz	LAT3pt2_tx	LAT3pt2_ty	LAT3pt2_tz	LAT3pt3_tx	LAT3pt3_ty	LAT3pt3_tz
      0.36666667	     -0.31771219	      0.13456789	     -0.13456789	      0.31771219	     -0.06433026	      0.51989449	      0.23368900	     -0.23368900	     -0.51989449	      0.06433026	    101.03170143	     75.22118447	     -1.76333584	    -34.18495577	     30.16513298	     85.37214049	      0.31219726	     -0.73735044	      0.34391829	     -0.36867522	     37.67448977	    -23.31853227	      9.20975342	      6.84591401	     70.55475396	     11.16487939	     74.59553277	     55.50942418	     84.78910015	     -0.39041468	     79.37361749	     52.92309833	     81.49581850	    -12.86556727	     92.11761396	     39.79563546	     81.24839470	    -14.08028019	     94.67366405	      5.37189640	      0.00089777	     -0.03105739	     -0.00485689	      0.01430436	     -0.01839451	     -0.00118329	      0.00124196	     -0.06897888	     -0.00692718	      0.01266594	     -0.18225894	      0.00006665	     -0.01024463	      0.00354362	     -0.00073716	      0.00029912	      0.00011965	      0.00059824	      0.00038287	      0.00114861	      0.00064610	     -0.00001244	     -0.00015333	     -0.00018399	      0.00246559	      0.00865044	      0.00601770	     -0.00806539	      0.01947395	     -0.01847100	      0.00246559	      0.00865044	      0.00601770	      0.00054326	      0.01805310	     -0.00948624	      0.00391197	      0.00481040	      0.01587904	      0.00000000	      0.00756581	      0.00000000	     -0.00706244	     -0.03263766	     -0.00623713	      0.02061612	     -0.00090230	     -0.00963855	     -0.00087758	      0.01470993	     -0.00601770	      0.00242380	      0.02122911	     -0.01755162	     -0.00589233	      0.01274582	     -0.00539086	     -0.01228614	      0.02691249	     -0.03013029	     -0.02306785	      0.01425025	     -0.00722960	     -0.01529499	      0.03109145	     -0.03765241
      0.40000000	     -0.31768531	      0.13455650	     -0.13455650	      0.31768531	     -0.06432481	      0.51985051	      0.23366923	     -0.23366923	     -0.51985051	      0.06432481	    101.04308193	     75.21482093	     -1.76353447	    -34.17846737	     30.17722836	     85.37180140	      0.31220769	     -0.73734987	      0.34392692	     -0.36867494	     37.67559969	    -23.31856660	      9.21000778	      6.84626507	     70.55512345	     11.16519413	     74.59568716	     55.50915703	     84.79063845	     -0.39024038	     79.37410580	     52.92302115	     81.49678905	    -12.86554031	     92.11753305	     39.79556738	     81.24957851	    -14.08025787	     94.67370444	      5.37189479	      0.00089817	     -0.03105877	     -0.00485712	      0.01430439	     -0.01839779	     -0.00118334	      0.00124199	     -0.06897887	     -0.00692716	      0.01266590	     -0.18225895	      0.00006664	     -0.01024459	      0.00354360	     -0.00073715	      0.00029910	      0.00011964	      0.00059820	      0.00038285	      0.00114855	      0.00064606	     -0.00001244	     -0.00015331	     -0.00018397	      0.00246538	      0.00864971	      0.00601719	     -0.00806471	      0.01947230	     -0.01846943	      0.00246538	      0.00864971	      0.00601719	      0.00054322	      0.01805157	     -0.00948543	      0.00391173	      0.00480999	      0.01587844	      0.00000000	      0.00756452	      0.00000000	     -0.00706184	     -0.03263490	     -0.00623606	      0.02061356	     -0.00090208	     -0.00963512	     -0.00087751	      0.01470869	     -0.00601719	      0.00242359	      0.02122731	     -0.01755014	     -0.00589183	      0.01274474	     -0.00539040	     -0.01228510	      0.02691021	     -0.03012774	     -0.02306590	      0.01424904	     -0.00722899	     -0.01529369	      0.03108882	     -0.03764923
      0.43333333	     -0.31993200	      0.13550810	     -0.13550810	      0.31993200	     -0.06477972	      0.52352693	      0.23532175	     -0.23532175	     -0.52352693	      0.06477972	    100.01672060	     75.74674498	     -1.74562108	    -30.52029791	     30.82147729	     83.89959869	      0.35797211	     -0.60130704	      0.38093178	     -0.30065352	     38.05131029	    -23.35215623	      7.67648464	      9.54757242	     69.73497279	     11.32436299	     76.03938360	     52.80958938	     84.27699699	     -0.13604630	     80.40255523	     51.60866079	     81.47007190	    -12.81483832	     91.90779762	     40.54844538	     81.13509874	    -14.07104524	     94.36179446	      5.39043958	      0.00091948	     -0.03113261	     -0.00486901	      0.01445199	     -0.01857281	     -0.00143264	      0.00135077	     -0.06890853	     -0.00680856	      0.01249739	     -0.18230824	      0.00002760	     -0.01006793	      0.00346343	     -0.00069097	      0.00031242	      0.00012497	      0.00062485	      0.00039990	      0.00119971	      0.00067484	     -0.00001223	     -0.00014689	     -0.00017627	      0.00248281	      0.00871088	      0.00605974	     -0.00812174	      0.01961001	     -0.01860005	      0.00248281	      0.00871088	      0.00605974	      0.00054706	      0.01817923	     -0.00955251	      0.00393200	      0.00484401	      0.01592854	      0.00000000	      0.00767262	      0.00000000	     -0.00711178	     -0.03286570	     -0.00632582	      0.01910689	     -0.00077489	     -0.00775376	     -0.00088371	      0.01481271	     -0.00605974	      0.00244073	      0.02137743	     -0.01767426	     -0.00593350	      0.01283488	     -0.00542852	     -0.01237198	      0.02710052	     -0.03034081	     -0.02322902	      0.01434981	     -0.00728011	     -0.01540185	      0.03130868	     -0.03791549
      0.46666667	     -0.31835144	      0.13483864	     -0.13483864	      0.31835144	     -0.06445969	      0.52094055	      0.23415919	     -0.23415919	     -0.52094055	      0.06445969	    100.52695576	     75.37253315	     -1.75452637	    -32.70153934	     30.74562503	     84.90699719	      0.32444016	     -0.67687233	      0.35415408	     -0.33843617	     37.93582446	    -23.29796087	      7.82399338	      9.21201513	     70.11856912	     11.37310518	     76.47552936	     52.37711304	     84.64767977	     -0.13858167	     80.79497206	     51.97256387	     81.66002323	    -12.77493717	     92.75249912	     40.11002344	     81.26916435	    -14.06364783	     95.11610377	      5.38296160	      0.00091697	     -0.03112392	     -0.00486761	      0.01435152	     -0.01855220	     -0.00126238	      0.00127633	     -0.06895666	     -0.00688971	      0.01261263	     -0.18227458	      0.00005414	     -0.01018882	      0.00351822	     -0.00072245	      0.00030886	      0.00012354	      0.00061772	      0.00039534	      0.00118602	      0.00066714	     -0.00001230	     -0.00014888	     -0.00017866	      0.00247055	      0.00866785	      0.00602981	     -0.00808162	      0.01951313	     -0.01850816	      0.00247055	      0.00866785	      0.00602981	      0.00054436	      0.01808942	     -0.00950532	      0.00391775	      0.00482008	      0.01589337	      0.00000000	      0.00759649	      0.00000000	     -0.00707665	     -0.03270333	     -0.00626261	      0.02002681	     -0.00085031	     -0.00885741	     -0.00087935	      0.01473953	     -0.00602981	      0.00242867	      0.02127182	     -0.01758694	     -0.00590419	      0.01277147	     -0.00540170	     -0.01231086	      0.02696664	     -0.03019091	     -0.02311426	      0.01427892	     -0.00724414	     -0.01532576	      0.03115401	     -0.03772817
      0.50000000	     -0.31831148	      0.13482172	     -0.13482172	      0.31831148	     -0.06445160	      0.52087516	      0.23412980	     -0.23412980	     -0.52087516	      0.06445160	    100.52408267	     75.36307220	     -1.75447622	    -32.70018537	     30.74076667	     84.90723418	      0.32443729	     -0.67685428	      0.35415139	     -0.33842714	     37.93479162	    -23.29811400	      7.82329482	      9.21173384	     70.11970148	     11.37331092	     76.47556311	     52.37718056	     84.64927750	     -0.13840997	     80.79519774	     51.97267084	     81.66058597	    -12.77486628	     92.75272979	     40.11006125	     81.26901512	    -14.06364794	     95.11609181	      5.38297903	      0.00091681	     -0.03112336	     -0.00486752	      0.01435150	     -0.01855088	     -0.00126234	      0.00127631	     -0.06895667	     -0.00688973	      0.01261265	     -0.18227457	      0.00005415	     -0.01018884	      0.00351823	     -0.00072245	      0.00030885	      0.00012354	      0.00061771	      0.00039533	      0.00118600	      0.00066712	     -0.00001230	     -0.00014890	     -0.00017868	      0.00247024	      0.00866676	      0.00602905	     -0.00808060	      0.01951068	     -0.01850584	      0.00247024	      0.00866676	      0.00602905	      0.00054429	      0.01808715	     -0.00950413	      0.00391739	      0.00481948	      0.01589247	      0.00000000	      0.00759457	      0.00000000	     -0.00707576	     -0.03269923	     -0.00626101	      0.02002624	     -0.00085026	     -0.00885673	     -0.00087924	      0.01473768	     -0.00602905	      0.00242837	      0.02126915	     -0.01758473	     -0.00590345	      0.01276986	     -0.00540102	     -0.01230931	      0.02696326	     -0.03018712	     -0.02311136	      0.01427713	     -0.00724323	     -0.01532384	      0.03115010	     -0.03772344
      0.53333333	     -0.32007443	      0.13556842	     -0.13556842	      0.32007443	     -0.06480856	      0.52375999	      0.23542651	     -0.23542651	     -0.52375999	      0.06480856	    100.02571224	     75.78046605	     -1.74577802	    -30.45443527	     30.71759242	     83.97602722	      0.35649159	     -0.59898006	      0.37978908	     -0.29949003	     37.73536618	    -23.36404847	      6.85125815	      9.66657112	     69.97175662	     11.44316317	     76.50880373	     49.93924497	     84.66587582	      0.04615411	     80.54037745	     51.45940559	     81.54040014	    -12.78107770	     92.53206007	     40.00196860	     80.72646291	    -14.06902633	     94.83733886	      5.39161524	      0.00091604	     -0.03112071	     -0.00486709	      0.01444446	     -0.01854458	     -0.00141979	      0.00134512	     -0.06891218	     -0.00681472	      0.01250612	     -0.18230570	      0.00002958	     -0.01007710	      0.00346757	     -0.00069333	      0.00031242	      0.00012497	      0.00062483	      0.00039989	      0.00119968	      0.00067482	     -0.00001241	     -0.00015230	     -0.00018276	      0.00248392	      0.00871476	      0.00606244	     -0.00812536	      0.01961874	     -0.01860833	      0.00248392	      0.00871476	      0.00606244	      0.00054730	      0.01818733	     -0.00955677	      0.00393328	      0.00484617	      0.01593170	      0.00000000	      0.00767950	      0.00000000	     -0.00711495	     -0.03288033	     -0.00633153	      0.01907830	     -0.00077263	     -0.00772115	     -0.00088411	      0.01481930	     -0.00606244	      0.00244182	      0.02138695	     -0.01768212	     -0.00593614	      0.01284059	     -0.00543094	     -0.01237749	      0.02711259	     -0.03035431	     -0.02323936	      0.01435620	     -0.00728335	     -0.01540871	      0.03132262	     -0.03793237
